<?xml version="1.0" encoding="utf-8"?>
<!-- Generator: Adobe Illustrator 16.0.0, SVG Export Plug-In . SVG Version: 6.00 Build 0)  -->
<!DOCTYPE svg PUBLIC "-//W3C//DTD SVG 1.1//EN" "http://www.w3.org/Graphics/SVG/1.1/DTD/svg11.dtd">
<svg version="1.1" id="Icons" xmlns="http://www.w3.org/2000/svg" xmlns:xlink="http://www.w3.org/1999/xlink" x="0px" y="0px"
	 width="24px" height="24px" viewBox="0 0 24 24" enable-background="new 0 0 24 24" xml:space="preserve">
<path id="Angle-right" fill="#5EBF8F" d="M10.018,22h-5c-0.404,0-0.769-0.244-0.924-0.617c-0.155-0.374-0.069-0.804,0.216-1.09L12.586,12
	L4.293,3.707c-0.286-0.286-0.372-0.716-0.217-1.09C4.231,2.244,4.596,2,5,2h5c0.265,0,0.52,0.105,0.707,0.293l3.085,3.084
	c0.391,0.39,0.391,1.023,0,1.414s-1.023,0.391-1.414,0L9.586,4H7.414l7.293,7.293c0.391,0.39,0.391,1.023,0.001,1.414L7.428,20
	h2.175l7.984-8l-2.796-2.795c-0.391-0.391-0.391-1.023,0-1.414s1.023-0.391,1.414,0l3.502,3.502c0.391,0.39,0.391,1.023,0.001,1.414
	l-8.982,9C10.538,21.895,10.283,22,10.018,22z"/>
</svg>
