<?xml version="1.0" encoding="utf-8"?>
<!-- Generator: Adobe Illustrator 16.0.0, SVG Export Plug-In . SVG Version: 6.00 Build 0)  -->
<!DOCTYPE svg PUBLIC "-//W3C//DTD SVG 1.1//EN" "http://www.w3.org/Graphics/SVG/1.1/DTD/svg11.dtd">
<svg version="1.1" id="Icons" xmlns="http://www.w3.org/2000/svg" xmlns:xlink="http://www.w3.org/1999/xlink" x="0px" y="0px"
	 width="24px" height="24px" viewBox="0 0 24 24" enable-background="new 0 0 24 24" xml:space="preserve">
<path id="Angle-left" fill="#5EBF8F" d="M18.982,22h-5c-0.266,0-0.521-0.105-0.708-0.293l-8.982-9c-0.39-0.391-0.39-1.023,0.001-1.414l3.502-3.502
	c0.391-0.391,1.023-0.391,1.414,0s0.391,1.023,0,1.414L6.413,12l7.984,8h2.174l-7.279-7.293c-0.39-0.391-0.39-1.023,0.001-1.414
	L16.586,4h-2.172l-2.792,2.792c-0.391,0.391-1.023,0.391-1.414,0s-0.391-1.024,0-1.414l3.085-3.084C13.48,2.105,13.734,2,14,2h5
	c0.404,0,0.77,0.244,0.924,0.617c0.155,0.374,0.069,0.804-0.217,1.09L11.413,12l8.277,8.293c0.285,0.286,0.37,0.716,0.216,1.09
	C19.751,21.756,19.387,22,18.982,22z"/>
</svg>
