<?xml version="1.0" encoding="utf-8"?>
<!-- Generator: Adobe Illustrator 24.0.0, SVG Export Plug-In . SVG Version: 6.00 Build 0)  -->
<svg version="1.1" id="Layer_1" xmlns="http://www.w3.org/2000/svg" xmlns:xlink="http://www.w3.org/1999/xlink" x="0px" y="0px"
	 viewBox="0 0 256 256" enable-background="new 0 0 256 256" xml:space="preserve">
<g>
	<g>
		<path fill="#E0EBFC" d="M155.053,128l43.439-43.439c2.656-2.656,2.656-6.963,0-9.619l-17.434-17.434
			c-2.656-2.656-6.963-2.656-9.619,0L128,100.947L84.561,57.509c-2.656-2.656-6.963-2.656-9.619,0L57.509,74.943
			c-2.656,2.656-2.656,6.963,0,9.619L100.947,128l-43.439,43.439c-2.656,2.656-2.656,6.963,0,9.619l17.434,17.434
			c2.656,2.656,6.963,2.656,9.619,0L128,155.053l43.439,43.439c2.656,2.656,6.963,2.656,9.619,0l17.434-17.434
			c2.656-2.656,2.656-6.963,0-9.619L155.053,128z"/>
	</g>
	<!-- <g>
		<path fill="#3762CC" d="M128,255C57.972,255,1,198.028,1,128S57.972,1,128,1s127,56.972,127,127S198.028,255,128,255z M128,5
			C60.178,5,5,60.178,5,128s55.178,123,123,123s123-55.178,123-123S195.822,5,128,5z"/>
	</g> -->
	<g>
		<path fill="#484D6D" d="M176.248,202.483c-2.351,0-4.561-0.916-6.224-2.578L128,157.881l-42.025,42.024
			c-1.662,1.663-3.872,2.578-6.223,2.578s-4.562-0.916-6.224-2.578l-17.434-17.434c-3.431-3.432-3.431-9.016,0-12.447L98.119,128
			L56.094,85.976c-3.431-3.432-3.431-9.016,0-12.447l17.435-17.434c1.662-1.663,3.873-2.578,6.224-2.578s4.561,0.916,6.224,2.578
			L128,98.119l42.025-42.024c1.662-1.663,3.872-2.578,6.223-2.578s4.562,0.916,6.224,2.578l17.434,17.434
			c3.431,3.432,3.431,9.016,0,12.447L157.881,128l42.024,42.024c3.431,3.432,3.431,9.016,0,12.447l-17.435,17.434
			C180.81,201.568,178.599,202.483,176.248,202.483z M128,153.053c0.512,0,1.024,0.195,1.414,0.586l43.439,43.438
			c0.907,0.907,2.113,1.406,3.395,1.406c1.283,0,2.488-0.5,3.396-1.406l17.434-17.434c1.872-1.872,1.872-4.919,0-6.791
			l-43.438-43.438c-0.375-0.375-0.586-0.884-0.586-1.414s0.211-1.039,0.586-1.414l43.439-43.438c1.872-1.872,1.872-4.919,0-6.791
			l-17.434-17.434c-0.907-0.907-2.113-1.406-3.396-1.406c-1.282,0-2.488,0.5-3.395,1.406l-43.439,43.438
			c-0.78,0.781-2.048,0.781-2.828,0L83.147,58.923c-0.907-0.907-2.113-1.406-3.395-1.406c-1.283,0-2.488,0.5-3.396,1.406
			L58.922,76.356c-1.872,1.872-1.872,4.919,0,6.791l43.438,43.438c0.375,0.375,0.586,0.884,0.586,1.414s-0.211,1.039-0.586,1.414
			l-43.439,43.438c-1.872,1.872-1.872,4.919,0,6.791l17.434,17.434c0.907,0.907,2.113,1.406,3.396,1.406
			c1.282,0,2.488-0.5,3.395-1.406l43.439-43.438C126.976,153.248,127.488,153.053,128,153.053z"/>
	</g>
</g>
</svg>